<svg xmlns="http://www.w3.org/2000/svg" style="display:none">
    <symbol id="icon-star" viewBox="0 0 12 12">
        <path d="M6 1l1.5 3 3.5.5-2.5 2.5.5 3.5L6 9l-3 1.5.5-3.5L1 4.5 4.5 4z" fill="currentColor"/>
    </symbol>
    <symbol id="icon-star-half" viewBox="0 0 12 12">
        <path d="M6 1l1.5 4H11l-3.5 2.5 1.5 4L6 9.5 2 11.5l1.5-4L0 5h3.5z" fill="currentColor"/>
    </symbol>
    <symbol id="icon-circle-dot" viewBox="0 0 12 12">
        <circle cx="6" cy="6" r="4" fill="none" stroke="currentColor" stroke-width="1.5"/>
        <circle cx="6" cy="6" r="2" fill="currentColor"/>
    </symbol>
    <symbol id="icon-clock" viewBox="0 0 16 16">
        <circle cx="8" cy="8" r="6" fill="none" stroke="currentColor" stroke-width="1.5"/>
        <path d="M8 4v4l2.5 1.5" fill="none" stroke="currentColor" stroke-width="1.5"/>
    </symbol>
    <symbol id="icon-search" viewBox="0 0 24 24">
        <circle cx="11" cy="11" r="8" fill="none" stroke="currentColor" stroke-width="2"/>
        <path d="M21 21l-4.35-4.35" fill="none" stroke="currentColor" stroke-width="2"/>
    </symbol>
    <symbol id="icon-lock" viewBox="0 0 24 24">
        <rect x="3" y="11" width="18" height="11" rx="2" fill="none" stroke="currentColor" stroke-width="2"/>
        <path d="M7 11V7a5 5 0 0110 0v4" fill="none" stroke="currentColor" stroke-width="2"/>
    </symbol>
    <symbol id="icon-user" viewBox="0 0 24 24">
        <path d="M12 12c2.7 0 4.8-2.2 4.8-4.8S14.7 2.4 12 2.4 7.2 4.5 7.2 7.2 9.3 12 12 12zm0 2.4c-3.2 0-9.6 1.6-9.6 4.8v2.4h19.2v-2.4c0-3.2-6.4-4.8-9.6-4.8z" fill="currentColor"/>
    </symbol>
    <symbol id="icon-check" viewBox="0 0 24 24">
        <polyline points="20 6 9 17 4 12" fill="none" stroke="currentColor" stroke-width="2"/>
    </symbol>
    <symbol id="icon-trophy" viewBox="0 0 24 24">
        <path d="M12 2l3.09 6.26L22 9.27l-5 4.87L18.18 22 12 18.27 5.82 22 7 14.14l-5-4.87 6.91-1.01z" fill="none" stroke="currentColor" stroke-width="1.5"/>
    </symbol>
    <symbol id="icon-edit" viewBox="0 0 24 24">
        <path d="M14 2l4 4-10 10H4v-4L14 2z" fill="none" stroke="currentColor" stroke-width="2"/>
        <path d="M3 22h18" fill="none" stroke="currentColor" stroke-width="2"/>
    </symbol>
</svg>
